<mxfile host="app.diagrams.net" modified="2023-03-27T07:55:37.912Z" agent="Mozilla/5.0 (X11; Ubuntu; Linux x86_64; rv:108.0) Gecko/20100101 Firefox/108.0" version="21.1.1" etag="V6IU_E7qB1jHa1I8bRKm" type="device">
  <diagram name="Página-1" id="xasGz37oJKi1Bsmr6xXT">
    <mxGraphModel dx="4698" dy="1295" grid="1" gridSize="10" guides="1" tooltips="1" connect="1" arrows="1" fold="1" page="1" pageScale="1" pageWidth="827" pageHeight="1169" math="0" shadow="0">
      <root>
        <mxCell id="0" />
        <mxCell id="1" parent="0" />
        <mxCell id="EnoG8UHb5zYuxF4KxrJ3-3" value="" style="edgeStyle=orthogonalEdgeStyle;rounded=0;orthogonalLoop=1;jettySize=auto;html=1;" parent="1" source="EnoG8UHb5zYuxF4KxrJ3-1" target="EnoG8UHb5zYuxF4KxrJ3-2" edge="1">
          <mxGeometry relative="1" as="geometry" />
        </mxCell>
        <mxCell id="EnoG8UHb5zYuxF4KxrJ3-7" style="edgeStyle=orthogonalEdgeStyle;rounded=0;orthogonalLoop=1;jettySize=auto;html=1;exitX=0.75;exitY=1;exitDx=0;exitDy=0;entryX=0.5;entryY=0;entryDx=0;entryDy=0;" parent="1" source="EnoG8UHb5zYuxF4KxrJ3-1" target="EnoG8UHb5zYuxF4KxrJ3-5" edge="1">
          <mxGeometry relative="1" as="geometry" />
        </mxCell>
        <mxCell id="EnoG8UHb5zYuxF4KxrJ3-1" value="RottenPotato" style="rounded=0;whiteSpace=wrap;html=1;" parent="1" vertex="1">
          <mxGeometry x="200" width="120" height="60" as="geometry" />
        </mxCell>
        <mxCell id="EnoG8UHb5zYuxF4KxrJ3-26" style="edgeStyle=orthogonalEdgeStyle;rounded=0;orthogonalLoop=1;jettySize=auto;html=1;exitX=0.5;exitY=1;exitDx=0;exitDy=0;entryX=0.5;entryY=0;entryDx=0;entryDy=0;" parent="1" source="EnoG8UHb5zYuxF4KxrJ3-2" target="EnoG8UHb5zYuxF4KxrJ3-25" edge="1">
          <mxGeometry relative="1" as="geometry" />
        </mxCell>
        <mxCell id="EnoG8UHb5zYuxF4KxrJ3-2" value="Iniciar Sesión" style="rounded=0;whiteSpace=wrap;html=1;" parent="1" vertex="1">
          <mxGeometry x="90" y="130" width="120" height="60" as="geometry" />
        </mxCell>
        <mxCell id="EnoG8UHb5zYuxF4KxrJ3-8" style="edgeStyle=orthogonalEdgeStyle;rounded=0;orthogonalLoop=1;jettySize=auto;html=1;" parent="1" source="EnoG8UHb5zYuxF4KxrJ3-5" target="EnoG8UHb5zYuxF4KxrJ3-9" edge="1">
          <mxGeometry relative="1" as="geometry">
            <mxPoint x="390" y="270" as="targetPoint" />
          </mxGeometry>
        </mxCell>
        <mxCell id="EnoG8UHb5zYuxF4KxrJ3-5" value="Crear Cuenta" style="rounded=0;whiteSpace=wrap;html=1;" parent="1" vertex="1">
          <mxGeometry x="330" y="130" width="120" height="60" as="geometry" />
        </mxCell>
        <mxCell id="EnoG8UHb5zYuxF4KxrJ3-11" value="" style="edgeStyle=orthogonalEdgeStyle;rounded=0;orthogonalLoop=1;jettySize=auto;html=1;" parent="1" source="EnoG8UHb5zYuxF4KxrJ3-9" target="EnoG8UHb5zYuxF4KxrJ3-10" edge="1">
          <mxGeometry relative="1" as="geometry" />
        </mxCell>
        <mxCell id="EnoG8UHb5zYuxF4KxrJ3-9" value="Introducir Usuario Contraseña" style="rounded=0;whiteSpace=wrap;html=1;" parent="1" vertex="1">
          <mxGeometry x="330" y="240" width="120" height="60" as="geometry" />
        </mxCell>
        <mxCell id="EnoG8UHb5zYuxF4KxrJ3-18" style="edgeStyle=orthogonalEdgeStyle;rounded=0;orthogonalLoop=1;jettySize=auto;html=1;exitX=0;exitY=0.5;exitDx=0;exitDy=0;entryX=1;entryY=0.5;entryDx=0;entryDy=0;" parent="1" source="EnoG8UHb5zYuxF4KxrJ3-10" target="EnoG8UHb5zYuxF4KxrJ3-14" edge="1">
          <mxGeometry relative="1" as="geometry" />
        </mxCell>
        <mxCell id="EnoG8UHb5zYuxF4KxrJ3-23" style="edgeStyle=orthogonalEdgeStyle;rounded=0;orthogonalLoop=1;jettySize=auto;html=1;exitX=1;exitY=0.5;exitDx=0;exitDy=0;entryX=1;entryY=0;entryDx=0;entryDy=0;" parent="1" source="EnoG8UHb5zYuxF4KxrJ3-10" target="EnoG8UHb5zYuxF4KxrJ3-2" edge="1">
          <mxGeometry relative="1" as="geometry">
            <mxPoint x="680" y="410" as="targetPoint" />
          </mxGeometry>
        </mxCell>
        <mxCell id="EnoG8UHb5zYuxF4KxrJ3-10" value="Validar cuenta" style="rhombus;whiteSpace=wrap;html=1;rounded=0;" parent="1" vertex="1">
          <mxGeometry x="550" y="320" width="80" height="80" as="geometry" />
        </mxCell>
        <mxCell id="EnoG8UHb5zYuxF4KxrJ3-17" style="edgeStyle=orthogonalEdgeStyle;rounded=0;orthogonalLoop=1;jettySize=auto;html=1;entryX=0.447;entryY=1.033;entryDx=0;entryDy=0;entryPerimeter=0;" parent="1" source="EnoG8UHb5zYuxF4KxrJ3-14" target="EnoG8UHb5zYuxF4KxrJ3-9" edge="1">
          <mxGeometry relative="1" as="geometry" />
        </mxCell>
        <mxCell id="EnoG8UHb5zYuxF4KxrJ3-14" value="Mensaje Error" style="rounded=0;whiteSpace=wrap;html=1;" parent="1" vertex="1">
          <mxGeometry x="340" y="420" width="90" height="40" as="geometry" />
        </mxCell>
        <mxCell id="_RBZDWvtwCyvlnyVkb1q-7" style="edgeStyle=orthogonalEdgeStyle;rounded=0;orthogonalLoop=1;jettySize=auto;html=1;entryX=0;entryY=0.5;entryDx=0;entryDy=0;exitX=0;exitY=0.5;exitDx=0;exitDy=0;" edge="1" parent="1" source="EnoG8UHb5zYuxF4KxrJ3-25" target="3">
          <mxGeometry relative="1" as="geometry">
            <mxPoint x="-90" y="280" as="sourcePoint" />
            <Array as="points">
              <mxPoint x="-90" y="270" />
              <mxPoint x="-90" y="470" />
            </Array>
          </mxGeometry>
        </mxCell>
        <mxCell id="EnoG8UHb5zYuxF4KxrJ3-25" value="Comprobar Administrador" style="rhombus;whiteSpace=wrap;html=1;" parent="1" vertex="1">
          <mxGeometry x="20" y="225" width="100" height="90" as="geometry" />
        </mxCell>
        <mxCell id="_RBZDWvtwCyvlnyVkb1q-13" style="edgeStyle=orthogonalEdgeStyle;rounded=0;orthogonalLoop=1;jettySize=auto;html=1;" edge="1" parent="1" source="_RBZDWvtwCyvlnyVkb1q-14">
          <mxGeometry relative="1" as="geometry">
            <mxPoint x="60" y="580" as="targetPoint" />
          </mxGeometry>
        </mxCell>
        <mxCell id="3" value="Imprimir menú convencional" style="rounded=0;whiteSpace=wrap;html=1;" parent="1" vertex="1">
          <mxGeometry y="440" width="120" height="60" as="geometry" />
        </mxCell>
        <mxCell id="7" style="edgeStyle=orthogonalEdgeStyle;rounded=0;orthogonalLoop=1;jettySize=auto;html=1;entryX=0.5;entryY=0;entryDx=0;entryDy=0;exitX=1;exitY=0.5;exitDx=0;exitDy=0;" parent="1" source="EnoG8UHb5zYuxF4KxrJ3-25" edge="1" target="_RBZDWvtwCyvlnyVkb1q-8">
          <mxGeometry relative="1" as="geometry">
            <mxPoint x="220" y="330" as="targetPoint" />
            <mxPoint x="330" y="270" as="sourcePoint" />
            <Array as="points">
              <mxPoint x="210" y="270" />
            </Array>
          </mxGeometry>
        </mxCell>
        <mxCell id="_RBZDWvtwCyvlnyVkb1q-10" style="edgeStyle=orthogonalEdgeStyle;rounded=0;orthogonalLoop=1;jettySize=auto;html=1;entryX=1;entryY=0.5;entryDx=0;entryDy=0;" edge="1" parent="1" source="_RBZDWvtwCyvlnyVkb1q-8" target="3">
          <mxGeometry relative="1" as="geometry">
            <mxPoint x="220" y="470" as="targetPoint" />
            <Array as="points">
              <mxPoint x="210" y="470" />
            </Array>
          </mxGeometry>
        </mxCell>
        <mxCell id="_RBZDWvtwCyvlnyVkb1q-8" value="Imprimir Menú Admin" style="rounded=0;whiteSpace=wrap;html=1;" vertex="1" parent="1">
          <mxGeometry x="150" y="340" width="120" height="60" as="geometry" />
        </mxCell>
        <mxCell id="_RBZDWvtwCyvlnyVkb1q-15" value="" style="edgeStyle=orthogonalEdgeStyle;rounded=0;orthogonalLoop=1;jettySize=auto;html=1;" edge="1" parent="1" source="3" target="_RBZDWvtwCyvlnyVkb1q-14">
          <mxGeometry relative="1" as="geometry">
            <mxPoint x="60" y="580" as="targetPoint" />
            <mxPoint x="60" y="500" as="sourcePoint" />
          </mxGeometry>
        </mxCell>
        <mxCell id="_RBZDWvtwCyvlnyVkb1q-16" style="edgeStyle=orthogonalEdgeStyle;rounded=0;orthogonalLoop=1;jettySize=auto;html=1;" edge="1" parent="1" source="_RBZDWvtwCyvlnyVkb1q-14">
          <mxGeometry relative="1" as="geometry">
            <mxPoint x="-520" y="640" as="targetPoint" />
          </mxGeometry>
        </mxCell>
        <mxCell id="_RBZDWvtwCyvlnyVkb1q-14" value="Elegir opción" style="rounded=0;whiteSpace=wrap;html=1;" vertex="1" parent="1">
          <mxGeometry y="540" width="120" height="60" as="geometry" />
        </mxCell>
        <mxCell id="_RBZDWvtwCyvlnyVkb1q-18" style="edgeStyle=orthogonalEdgeStyle;rounded=0;orthogonalLoop=1;jettySize=auto;html=1;entryX=0.5;entryY=0;entryDx=0;entryDy=0;" edge="1" parent="1" source="_RBZDWvtwCyvlnyVkb1q-17" target="_RBZDWvtwCyvlnyVkb1q-19">
          <mxGeometry relative="1" as="geometry">
            <mxPoint x="-630" y="710" as="targetPoint" />
            <Array as="points">
              <mxPoint x="-640" y="670" />
            </Array>
          </mxGeometry>
        </mxCell>
        <mxCell id="_RBZDWvtwCyvlnyVkb1q-17" value="Crear Película" style="rounded=0;whiteSpace=wrap;html=1;" vertex="1" parent="1">
          <mxGeometry x="-580" y="640" width="120" height="60" as="geometry" />
        </mxCell>
        <mxCell id="_RBZDWvtwCyvlnyVkb1q-20" style="edgeStyle=orthogonalEdgeStyle;rounded=0;orthogonalLoop=1;jettySize=auto;html=1;" edge="1" parent="1" source="_RBZDWvtwCyvlnyVkb1q-19" target="_RBZDWvtwCyvlnyVkb1q-21">
          <mxGeometry relative="1" as="geometry">
            <mxPoint x="-640" y="800" as="targetPoint" />
          </mxGeometry>
        </mxCell>
        <mxCell id="_RBZDWvtwCyvlnyVkb1q-19" value="Añadir Titulo" style="rounded=0;whiteSpace=wrap;html=1;" vertex="1" parent="1">
          <mxGeometry x="-680" y="720" width="80" height="30" as="geometry" />
        </mxCell>
        <mxCell id="_RBZDWvtwCyvlnyVkb1q-22" style="edgeStyle=orthogonalEdgeStyle;rounded=0;orthogonalLoop=1;jettySize=auto;html=1;" edge="1" parent="1" source="_RBZDWvtwCyvlnyVkb1q-21">
          <mxGeometry relative="1" as="geometry">
            <mxPoint x="-740" y="850" as="targetPoint" />
            <Array as="points">
              <mxPoint x="-740" y="805" />
              <mxPoint x="-740" y="840" />
            </Array>
          </mxGeometry>
        </mxCell>
        <mxCell id="_RBZDWvtwCyvlnyVkb1q-29" style="edgeStyle=orthogonalEdgeStyle;rounded=0;orthogonalLoop=1;jettySize=auto;html=1;" edge="1" parent="1" source="_RBZDWvtwCyvlnyVkb1q-21" target="_RBZDWvtwCyvlnyVkb1q-30">
          <mxGeometry relative="1" as="geometry">
            <mxPoint x="-540" y="850" as="targetPoint" />
            <Array as="points">
              <mxPoint x="-520" y="805" />
            </Array>
          </mxGeometry>
        </mxCell>
        <mxCell id="_RBZDWvtwCyvlnyVkb1q-21" value="Titulo Existe" style="rhombus;whiteSpace=wrap;html=1;" vertex="1" parent="1">
          <mxGeometry x="-680" y="780" width="80" height="50" as="geometry" />
        </mxCell>
        <mxCell id="_RBZDWvtwCyvlnyVkb1q-32" value="" style="edgeStyle=orthogonalEdgeStyle;rounded=0;orthogonalLoop=1;jettySize=auto;html=1;" edge="1" parent="1" source="_RBZDWvtwCyvlnyVkb1q-24" target="_RBZDWvtwCyvlnyVkb1q-31">
          <mxGeometry relative="1" as="geometry" />
        </mxCell>
        <mxCell id="_RBZDWvtwCyvlnyVkb1q-24" value="Pedir Duración" style="rounded=0;whiteSpace=wrap;html=1;" vertex="1" parent="1">
          <mxGeometry x="-790" y="850" width="90" height="40" as="geometry" />
        </mxCell>
        <mxCell id="_RBZDWvtwCyvlnyVkb1q-39" value="" style="edgeStyle=orthogonalEdgeStyle;rounded=0;orthogonalLoop=1;jettySize=auto;html=1;" edge="1" parent="1" source="_RBZDWvtwCyvlnyVkb1q-26" target="_RBZDWvtwCyvlnyVkb1q-38">
          <mxGeometry relative="1" as="geometry" />
        </mxCell>
        <mxCell id="_RBZDWvtwCyvlnyVkb1q-26" value="PedirValoración" style="rounded=0;whiteSpace=wrap;html=1;" vertex="1" parent="1">
          <mxGeometry x="-685" y="1040" width="90" height="40" as="geometry" />
        </mxCell>
        <mxCell id="_RBZDWvtwCyvlnyVkb1q-44" value="" style="edgeStyle=orthogonalEdgeStyle;rounded=0;orthogonalLoop=1;jettySize=auto;html=1;" edge="1" parent="1" source="_RBZDWvtwCyvlnyVkb1q-27" target="_RBZDWvtwCyvlnyVkb1q-43">
          <mxGeometry relative="1" as="geometry" />
        </mxCell>
        <mxCell id="_RBZDWvtwCyvlnyVkb1q-27" value="Pedir Género" style="rounded=0;whiteSpace=wrap;html=1;" vertex="1" parent="1">
          <mxGeometry x="-565" y="1250" width="90" height="40" as="geometry" />
        </mxCell>
        <mxCell id="_RBZDWvtwCyvlnyVkb1q-30" value="Mostrar &quot;Titulo ya existente&quot;" style="rounded=0;whiteSpace=wrap;html=1;" vertex="1" parent="1">
          <mxGeometry x="-580" y="850" width="140" height="30" as="geometry" />
        </mxCell>
        <mxCell id="_RBZDWvtwCyvlnyVkb1q-33" style="edgeStyle=orthogonalEdgeStyle;rounded=0;orthogonalLoop=1;jettySize=auto;html=1;" edge="1" parent="1" source="_RBZDWvtwCyvlnyVkb1q-31" target="_RBZDWvtwCyvlnyVkb1q-34">
          <mxGeometry relative="1" as="geometry">
            <mxPoint x="-850" y="1040" as="targetPoint" />
            <Array as="points">
              <mxPoint x="-900" y="990" />
            </Array>
          </mxGeometry>
        </mxCell>
        <mxCell id="_RBZDWvtwCyvlnyVkb1q-37" style="edgeStyle=orthogonalEdgeStyle;rounded=0;orthogonalLoop=1;jettySize=auto;html=1;" edge="1" parent="1" source="_RBZDWvtwCyvlnyVkb1q-31">
          <mxGeometry relative="1" as="geometry">
            <mxPoint x="-640" y="1040" as="targetPoint" />
          </mxGeometry>
        </mxCell>
        <mxCell id="_RBZDWvtwCyvlnyVkb1q-31" value="Duración &amp;gt; 0" style="rhombus;whiteSpace=wrap;html=1;rounded=0;" vertex="1" parent="1">
          <mxGeometry x="-785" y="950" width="80" height="80" as="geometry" />
        </mxCell>
        <mxCell id="_RBZDWvtwCyvlnyVkb1q-34" value="Mostrar &quot;Duración incorrecta&quot;" style="rounded=0;whiteSpace=wrap;html=1;" vertex="1" parent="1">
          <mxGeometry x="-970" y="1050" width="143" height="40" as="geometry" />
        </mxCell>
        <mxCell id="_RBZDWvtwCyvlnyVkb1q-40" style="edgeStyle=orthogonalEdgeStyle;rounded=0;orthogonalLoop=1;jettySize=auto;html=1;" edge="1" parent="1" source="_RBZDWvtwCyvlnyVkb1q-38" target="_RBZDWvtwCyvlnyVkb1q-41">
          <mxGeometry relative="1" as="geometry">
            <mxPoint x="-750" y="1240" as="targetPoint" />
          </mxGeometry>
        </mxCell>
        <mxCell id="_RBZDWvtwCyvlnyVkb1q-42" style="edgeStyle=orthogonalEdgeStyle;rounded=0;orthogonalLoop=1;jettySize=auto;html=1;" edge="1" parent="1" source="_RBZDWvtwCyvlnyVkb1q-38">
          <mxGeometry relative="1" as="geometry">
            <mxPoint x="-520" y="1250" as="targetPoint" />
          </mxGeometry>
        </mxCell>
        <mxCell id="_RBZDWvtwCyvlnyVkb1q-38" value="Valoración &amp;gt; 0 &amp;amp;&amp;amp; Valoración &amp;lt;= 5" style="rhombus;whiteSpace=wrap;html=1;rounded=0;" vertex="1" parent="1">
          <mxGeometry x="-695" y="1140" width="110" height="90" as="geometry" />
        </mxCell>
        <mxCell id="_RBZDWvtwCyvlnyVkb1q-41" value="Mostrar &quot;Valoración incorrecta&quot;" style="rounded=0;whiteSpace=wrap;html=1;" vertex="1" parent="1">
          <mxGeometry x="-800" y="1250" width="82.5" height="40" as="geometry" />
        </mxCell>
        <mxCell id="_RBZDWvtwCyvlnyVkb1q-45" style="edgeStyle=orthogonalEdgeStyle;rounded=0;orthogonalLoop=1;jettySize=auto;html=1;" edge="1" parent="1" source="_RBZDWvtwCyvlnyVkb1q-43" target="_RBZDWvtwCyvlnyVkb1q-46">
          <mxGeometry relative="1" as="geometry">
            <mxPoint x="-640" y="1450" as="targetPoint" />
          </mxGeometry>
        </mxCell>
        <mxCell id="_RBZDWvtwCyvlnyVkb1q-47" style="edgeStyle=orthogonalEdgeStyle;rounded=0;orthogonalLoop=1;jettySize=auto;html=1;" edge="1" parent="1" source="_RBZDWvtwCyvlnyVkb1q-43" target="_RBZDWvtwCyvlnyVkb1q-48">
          <mxGeometry relative="1" as="geometry">
            <mxPoint x="-400" y="1450" as="targetPoint" />
          </mxGeometry>
        </mxCell>
        <mxCell id="_RBZDWvtwCyvlnyVkb1q-43" value="Genero existe" style="rhombus;whiteSpace=wrap;html=1;rounded=0;" vertex="1" parent="1">
          <mxGeometry x="-560" y="1350" width="80" height="80" as="geometry" />
        </mxCell>
        <mxCell id="_RBZDWvtwCyvlnyVkb1q-46" value="Mostrar &quot;Género incorrecto&quot;" style="rounded=0;whiteSpace=wrap;html=1;" vertex="1" parent="1">
          <mxGeometry x="-695" y="1450" width="115" height="30" as="geometry" />
        </mxCell>
        <mxCell id="_RBZDWvtwCyvlnyVkb1q-73" value="" style="edgeStyle=orthogonalEdgeStyle;rounded=0;orthogonalLoop=1;jettySize=auto;html=1;" edge="1" parent="1" source="_RBZDWvtwCyvlnyVkb1q-48" target="_RBZDWvtwCyvlnyVkb1q-72">
          <mxGeometry relative="1" as="geometry" />
        </mxCell>
        <mxCell id="_RBZDWvtwCyvlnyVkb1q-48" value="Añadir descripción" style="rounded=0;whiteSpace=wrap;html=1;" vertex="1" parent="1">
          <mxGeometry x="-460" y="1450" width="70" height="30" as="geometry" />
        </mxCell>
        <mxCell id="_RBZDWvtwCyvlnyVkb1q-53" style="edgeStyle=orthogonalEdgeStyle;rounded=0;orthogonalLoop=1;jettySize=auto;html=1;" edge="1" parent="1" source="_RBZDWvtwCyvlnyVkb1q-49" target="_RBZDWvtwCyvlnyVkb1q-54">
          <mxGeometry relative="1" as="geometry">
            <mxPoint x="-270" y="770" as="targetPoint" />
          </mxGeometry>
        </mxCell>
        <mxCell id="_RBZDWvtwCyvlnyVkb1q-49" value="Ver Película" style="rounded=0;whiteSpace=wrap;html=1;" vertex="1" parent="1">
          <mxGeometry x="-260" y="640" width="120" height="60" as="geometry" />
        </mxCell>
        <mxCell id="_RBZDWvtwCyvlnyVkb1q-52" value="" style="endArrow=classic;html=1;rounded=0;entryX=0.5;entryY=0;entryDx=0;entryDy=0;" edge="1" parent="1" target="_RBZDWvtwCyvlnyVkb1q-49">
          <mxGeometry width="50" height="50" relative="1" as="geometry">
            <mxPoint x="-200" y="570" as="sourcePoint" />
            <mxPoint x="-230" y="585" as="targetPoint" />
            <Array as="points">
              <mxPoint x="-200" y="610" />
            </Array>
          </mxGeometry>
        </mxCell>
        <mxCell id="_RBZDWvtwCyvlnyVkb1q-55" style="edgeStyle=orthogonalEdgeStyle;rounded=0;orthogonalLoop=1;jettySize=auto;html=1;" edge="1" parent="1" source="_RBZDWvtwCyvlnyVkb1q-54">
          <mxGeometry relative="1" as="geometry">
            <mxPoint x="-320" y="850" as="targetPoint" />
            <Array as="points">
              <mxPoint x="-320" y="780" />
              <mxPoint x="-320" y="840" />
            </Array>
          </mxGeometry>
        </mxCell>
        <mxCell id="_RBZDWvtwCyvlnyVkb1q-58" style="edgeStyle=orthogonalEdgeStyle;rounded=0;orthogonalLoop=1;jettySize=auto;html=1;entryX=0.5;entryY=0;entryDx=0;entryDy=0;" edge="1" parent="1" source="_RBZDWvtwCyvlnyVkb1q-54" target="_RBZDWvtwCyvlnyVkb1q-59">
          <mxGeometry relative="1" as="geometry">
            <mxPoint x="-80" y="850" as="targetPoint" />
          </mxGeometry>
        </mxCell>
        <mxCell id="_RBZDWvtwCyvlnyVkb1q-54" value="Existen Películas" style="rhombus;whiteSpace=wrap;html=1;" vertex="1" parent="1">
          <mxGeometry x="-240" y="740" width="80" height="80" as="geometry" />
        </mxCell>
        <mxCell id="_RBZDWvtwCyvlnyVkb1q-56" value="" style="rounded=0;whiteSpace=wrap;html=1;" vertex="1" parent="1">
          <mxGeometry x="-413" y="880" width="63" as="geometry" />
        </mxCell>
        <mxCell id="_RBZDWvtwCyvlnyVkb1q-57" value="Mostrar &quot;No hay Películas&quot;" style="rounded=0;whiteSpace=wrap;html=1;" vertex="1" parent="1">
          <mxGeometry x="-380" y="850" width="110" height="40" as="geometry" />
        </mxCell>
        <mxCell id="_RBZDWvtwCyvlnyVkb1q-112" style="edgeStyle=orthogonalEdgeStyle;rounded=0;orthogonalLoop=1;jettySize=auto;html=1;exitX=0.25;exitY=1;exitDx=0;exitDy=0;entryX=0.5;entryY=0;entryDx=0;entryDy=0;" edge="1" parent="1" source="_RBZDWvtwCyvlnyVkb1q-59" target="_RBZDWvtwCyvlnyVkb1q-66">
          <mxGeometry relative="1" as="geometry" />
        </mxCell>
        <mxCell id="_RBZDWvtwCyvlnyVkb1q-113" style="edgeStyle=orthogonalEdgeStyle;rounded=0;orthogonalLoop=1;jettySize=auto;html=1;exitX=0.75;exitY=1;exitDx=0;exitDy=0;" edge="1" parent="1" source="_RBZDWvtwCyvlnyVkb1q-59" target="_RBZDWvtwCyvlnyVkb1q-68">
          <mxGeometry relative="1" as="geometry" />
        </mxCell>
        <mxCell id="_RBZDWvtwCyvlnyVkb1q-59" value="Elegir opción" style="rounded=0;whiteSpace=wrap;html=1;" vertex="1" parent="1">
          <mxGeometry x="-130" y="855" width="100" height="30" as="geometry" />
        </mxCell>
        <mxCell id="_RBZDWvtwCyvlnyVkb1q-111" value="" style="edgeStyle=orthogonalEdgeStyle;rounded=0;orthogonalLoop=1;jettySize=auto;html=1;" edge="1" parent="1" source="_RBZDWvtwCyvlnyVkb1q-66" target="_RBZDWvtwCyvlnyVkb1q-110">
          <mxGeometry relative="1" as="geometry" />
        </mxCell>
        <mxCell id="_RBZDWvtwCyvlnyVkb1q-66" value="Mostrar Todas las Películas" style="rounded=0;whiteSpace=wrap;html=1;" vertex="1" parent="1">
          <mxGeometry x="-210" y="990" width="110" height="30" as="geometry" />
        </mxCell>
        <mxCell id="_RBZDWvtwCyvlnyVkb1q-81" style="edgeStyle=orthogonalEdgeStyle;rounded=0;orthogonalLoop=1;jettySize=auto;html=1;entryX=0.5;entryY=0;entryDx=0;entryDy=0;" edge="1" parent="1" source="_RBZDWvtwCyvlnyVkb1q-68" target="_RBZDWvtwCyvlnyVkb1q-77">
          <mxGeometry relative="1" as="geometry" />
        </mxCell>
        <mxCell id="_RBZDWvtwCyvlnyVkb1q-68" value="Buscar Película" style="rounded=0;whiteSpace=wrap;html=1;" vertex="1" parent="1">
          <mxGeometry x="-70" y="990" width="110" height="30" as="geometry" />
        </mxCell>
        <mxCell id="_RBZDWvtwCyvlnyVkb1q-72" value="Añadir Película" style="whiteSpace=wrap;html=1;rounded=0;" vertex="1" parent="1">
          <mxGeometry x="-462.5" y="1510" width="75" height="30" as="geometry" />
        </mxCell>
        <mxCell id="_RBZDWvtwCyvlnyVkb1q-86" style="edgeStyle=orthogonalEdgeStyle;rounded=0;orthogonalLoop=1;jettySize=auto;html=1;entryX=0.5;entryY=0;entryDx=0;entryDy=0;exitX=0;exitY=0.75;exitDx=0;exitDy=0;" edge="1" parent="1" source="_RBZDWvtwCyvlnyVkb1q-77" target="_RBZDWvtwCyvlnyVkb1q-82">
          <mxGeometry relative="1" as="geometry" />
        </mxCell>
        <mxCell id="_RBZDWvtwCyvlnyVkb1q-109" style="edgeStyle=orthogonalEdgeStyle;rounded=0;orthogonalLoop=1;jettySize=auto;html=1;exitX=0.192;exitY=1.006;exitDx=0;exitDy=0;exitPerimeter=0;" edge="1" parent="1" source="_RBZDWvtwCyvlnyVkb1q-77" target="_RBZDWvtwCyvlnyVkb1q-84">
          <mxGeometry relative="1" as="geometry" />
        </mxCell>
        <mxCell id="_RBZDWvtwCyvlnyVkb1q-126" style="edgeStyle=orthogonalEdgeStyle;rounded=0;orthogonalLoop=1;jettySize=auto;html=1;exitX=1;exitY=0.75;exitDx=0;exitDy=0;" edge="1" parent="1" source="_RBZDWvtwCyvlnyVkb1q-77" target="_RBZDWvtwCyvlnyVkb1q-85">
          <mxGeometry relative="1" as="geometry" />
        </mxCell>
        <mxCell id="_RBZDWvtwCyvlnyVkb1q-139" style="edgeStyle=orthogonalEdgeStyle;rounded=0;orthogonalLoop=1;jettySize=auto;html=1;exitX=1;exitY=0.5;exitDx=0;exitDy=0;entryX=0.5;entryY=0;entryDx=0;entryDy=0;" edge="1" parent="1" source="_RBZDWvtwCyvlnyVkb1q-77" target="_RBZDWvtwCyvlnyVkb1q-83">
          <mxGeometry relative="1" as="geometry" />
        </mxCell>
        <mxCell id="_RBZDWvtwCyvlnyVkb1q-77" value="Elegir Tipo de Búsqueda" style="rounded=0;whiteSpace=wrap;html=1;" vertex="1" parent="1">
          <mxGeometry x="-10" y="1109" width="120" height="60" as="geometry" />
        </mxCell>
        <mxCell id="_RBZDWvtwCyvlnyVkb1q-88" value="" style="edgeStyle=orthogonalEdgeStyle;rounded=0;orthogonalLoop=1;jettySize=auto;html=1;" edge="1" parent="1" source="_RBZDWvtwCyvlnyVkb1q-82" target="_RBZDWvtwCyvlnyVkb1q-87">
          <mxGeometry relative="1" as="geometry" />
        </mxCell>
        <mxCell id="_RBZDWvtwCyvlnyVkb1q-82" value="Buscar por Autor" style="rounded=0;whiteSpace=wrap;html=1;" vertex="1" parent="1">
          <mxGeometry x="-80" y="1250" width="90" height="30" as="geometry" />
        </mxCell>
        <mxCell id="_RBZDWvtwCyvlnyVkb1q-138" value="" style="edgeStyle=orthogonalEdgeStyle;rounded=0;orthogonalLoop=1;jettySize=auto;html=1;" edge="1" parent="1" source="_RBZDWvtwCyvlnyVkb1q-83" target="_RBZDWvtwCyvlnyVkb1q-137">
          <mxGeometry relative="1" as="geometry" />
        </mxCell>
        <mxCell id="_RBZDWvtwCyvlnyVkb1q-83" value="Buscar por Título" style="rounded=0;whiteSpace=wrap;html=1;" vertex="1" parent="1">
          <mxGeometry x="825" y="1250" width="100" height="30" as="geometry" />
        </mxCell>
        <mxCell id="_RBZDWvtwCyvlnyVkb1q-97" value="" style="edgeStyle=orthogonalEdgeStyle;rounded=0;orthogonalLoop=1;jettySize=auto;html=1;" edge="1" parent="1" source="_RBZDWvtwCyvlnyVkb1q-84" target="_RBZDWvtwCyvlnyVkb1q-96">
          <mxGeometry relative="1" as="geometry" />
        </mxCell>
        <mxCell id="_RBZDWvtwCyvlnyVkb1q-84" value="Buscar por Género" style="rounded=0;whiteSpace=wrap;html=1;" vertex="1" parent="1">
          <mxGeometry x="200" y="1250" width="100" height="30" as="geometry" />
        </mxCell>
        <mxCell id="_RBZDWvtwCyvlnyVkb1q-125" value="" style="edgeStyle=orthogonalEdgeStyle;rounded=0;orthogonalLoop=1;jettySize=auto;html=1;" edge="1" parent="1" source="_RBZDWvtwCyvlnyVkb1q-85" target="_RBZDWvtwCyvlnyVkb1q-124">
          <mxGeometry relative="1" as="geometry" />
        </mxCell>
        <mxCell id="_RBZDWvtwCyvlnyVkb1q-85" value="Buscar por Valoración" style="rounded=0;whiteSpace=wrap;html=1;" vertex="1" parent="1">
          <mxGeometry x="540" y="1230" width="100" height="30" as="geometry" />
        </mxCell>
        <mxCell id="_RBZDWvtwCyvlnyVkb1q-90" value="" style="edgeStyle=orthogonalEdgeStyle;rounded=0;orthogonalLoop=1;jettySize=auto;html=1;" edge="1" parent="1" source="_RBZDWvtwCyvlnyVkb1q-87" target="_RBZDWvtwCyvlnyVkb1q-89">
          <mxGeometry relative="1" as="geometry" />
        </mxCell>
        <mxCell id="_RBZDWvtwCyvlnyVkb1q-87" value="Introducir Autor" style="whiteSpace=wrap;html=1;rounded=0;" vertex="1" parent="1">
          <mxGeometry x="-95" y="1345" width="105" height="25" as="geometry" />
        </mxCell>
        <mxCell id="_RBZDWvtwCyvlnyVkb1q-92" value="" style="edgeStyle=orthogonalEdgeStyle;rounded=0;orthogonalLoop=1;jettySize=auto;html=1;" edge="1" parent="1" source="_RBZDWvtwCyvlnyVkb1q-89" target="_RBZDWvtwCyvlnyVkb1q-91">
          <mxGeometry relative="1" as="geometry" />
        </mxCell>
        <mxCell id="_RBZDWvtwCyvlnyVkb1q-94" value="" style="edgeStyle=orthogonalEdgeStyle;rounded=0;orthogonalLoop=1;jettySize=auto;html=1;" edge="1" parent="1" source="_RBZDWvtwCyvlnyVkb1q-89" target="_RBZDWvtwCyvlnyVkb1q-93">
          <mxGeometry relative="1" as="geometry" />
        </mxCell>
        <mxCell id="_RBZDWvtwCyvlnyVkb1q-89" value="Nombre Válido" style="rhombus;whiteSpace=wrap;html=1;rounded=0;" vertex="1" parent="1">
          <mxGeometry x="-85" y="1410" width="85" height="55" as="geometry" />
        </mxCell>
        <mxCell id="_RBZDWvtwCyvlnyVkb1q-91" value="Mostrar &quot;Nombre no válido&quot;" style="whiteSpace=wrap;html=1;rounded=0;" vertex="1" parent="1">
          <mxGeometry x="-195" y="1477.5" width="100" height="30" as="geometry" />
        </mxCell>
        <mxCell id="_RBZDWvtwCyvlnyVkb1q-116" value="" style="edgeStyle=orthogonalEdgeStyle;rounded=0;orthogonalLoop=1;jettySize=auto;html=1;" edge="1" parent="1" source="_RBZDWvtwCyvlnyVkb1q-93" target="_RBZDWvtwCyvlnyVkb1q-115">
          <mxGeometry relative="1" as="geometry" />
        </mxCell>
        <mxCell id="_RBZDWvtwCyvlnyVkb1q-93" value="Mostrar Películas del autor" style="whiteSpace=wrap;html=1;rounded=0;" vertex="1" parent="1">
          <mxGeometry x="10" y="1477.5" width="110" height="30" as="geometry" />
        </mxCell>
        <mxCell id="_RBZDWvtwCyvlnyVkb1q-99" value="" style="edgeStyle=orthogonalEdgeStyle;rounded=0;orthogonalLoop=1;jettySize=auto;html=1;" edge="1" parent="1" source="_RBZDWvtwCyvlnyVkb1q-96" target="_RBZDWvtwCyvlnyVkb1q-98">
          <mxGeometry relative="1" as="geometry" />
        </mxCell>
        <mxCell id="_RBZDWvtwCyvlnyVkb1q-96" value="Introducir Género" style="whiteSpace=wrap;html=1;rounded=0;" vertex="1" parent="1">
          <mxGeometry x="195" y="1345" width="110" height="25" as="geometry" />
        </mxCell>
        <mxCell id="_RBZDWvtwCyvlnyVkb1q-101" value="" style="edgeStyle=orthogonalEdgeStyle;rounded=0;orthogonalLoop=1;jettySize=auto;html=1;" edge="1" parent="1" source="_RBZDWvtwCyvlnyVkb1q-98" target="_RBZDWvtwCyvlnyVkb1q-100">
          <mxGeometry relative="1" as="geometry" />
        </mxCell>
        <mxCell id="_RBZDWvtwCyvlnyVkb1q-108" style="edgeStyle=orthogonalEdgeStyle;rounded=0;orthogonalLoop=1;jettySize=auto;html=1;" edge="1" parent="1" source="_RBZDWvtwCyvlnyVkb1q-98">
          <mxGeometry relative="1" as="geometry">
            <mxPoint x="180" y="1510" as="targetPoint" />
          </mxGeometry>
        </mxCell>
        <mxCell id="_RBZDWvtwCyvlnyVkb1q-98" value="Género Válido" style="rhombus;whiteSpace=wrap;html=1;rounded=0;" vertex="1" parent="1">
          <mxGeometry x="205" y="1450" width="90" height="50" as="geometry" />
        </mxCell>
        <mxCell id="_RBZDWvtwCyvlnyVkb1q-118" style="edgeStyle=orthogonalEdgeStyle;rounded=0;orthogonalLoop=1;jettySize=auto;html=1;exitX=0.5;exitY=1;exitDx=0;exitDy=0;entryX=0.5;entryY=0;entryDx=0;entryDy=0;" edge="1" parent="1" source="_RBZDWvtwCyvlnyVkb1q-100" target="_RBZDWvtwCyvlnyVkb1q-117">
          <mxGeometry relative="1" as="geometry" />
        </mxCell>
        <mxCell id="_RBZDWvtwCyvlnyVkb1q-100" value="Mostrar Películas " style="whiteSpace=wrap;html=1;rounded=0;" vertex="1" parent="1">
          <mxGeometry x="324" y="1507.5" width="90" height="30" as="geometry" />
        </mxCell>
        <mxCell id="_RBZDWvtwCyvlnyVkb1q-103" value="Mostrar &quot;Género no válido&quot;" style="rounded=0;whiteSpace=wrap;html=1;" vertex="1" parent="1">
          <mxGeometry x="130" y="1510" width="100" height="30" as="geometry" />
        </mxCell>
        <mxCell id="_RBZDWvtwCyvlnyVkb1q-119" style="edgeStyle=orthogonalEdgeStyle;rounded=0;orthogonalLoop=1;jettySize=auto;html=1;exitX=0.5;exitY=1;exitDx=0;exitDy=0;entryX=0;entryY=0.5;entryDx=0;entryDy=0;" edge="1" parent="1" source="_RBZDWvtwCyvlnyVkb1q-110" target="_RBZDWvtwCyvlnyVkb1q-114">
          <mxGeometry relative="1" as="geometry">
            <mxPoint x="70" y="1690" as="targetPoint" />
            <Array as="points">
              <mxPoint x="-200" y="1115" />
              <mxPoint x="-200" y="1730" />
              <mxPoint x="50" y="1730" />
              <mxPoint x="50" y="1690" />
            </Array>
          </mxGeometry>
        </mxCell>
        <mxCell id="_RBZDWvtwCyvlnyVkb1q-110" value="Elegir Película" style="whiteSpace=wrap;html=1;rounded=0;" vertex="1" parent="1">
          <mxGeometry x="-197.5" y="1090" width="85" height="25" as="geometry" />
        </mxCell>
        <mxCell id="_RBZDWvtwCyvlnyVkb1q-114" value="Mostrar Ficha Película" style="rounded=0;whiteSpace=wrap;html=1;" vertex="1" parent="1">
          <mxGeometry x="75" y="1660" width="120" height="60" as="geometry" />
        </mxCell>
        <mxCell id="_RBZDWvtwCyvlnyVkb1q-120" style="edgeStyle=orthogonalEdgeStyle;rounded=0;orthogonalLoop=1;jettySize=auto;html=1;exitX=0.5;exitY=1;exitDx=0;exitDy=0;entryX=0.055;entryY=0.001;entryDx=0;entryDy=0;entryPerimeter=0;" edge="1" parent="1" source="_RBZDWvtwCyvlnyVkb1q-115" target="_RBZDWvtwCyvlnyVkb1q-114">
          <mxGeometry relative="1" as="geometry" />
        </mxCell>
        <mxCell id="_RBZDWvtwCyvlnyVkb1q-115" value="Elegir Película" style="whiteSpace=wrap;html=1;rounded=0;" vertex="1" parent="1">
          <mxGeometry x="22.5" y="1572.5" width="85" height="17.5" as="geometry" />
        </mxCell>
        <mxCell id="_RBZDWvtwCyvlnyVkb1q-121" style="edgeStyle=orthogonalEdgeStyle;rounded=0;orthogonalLoop=1;jettySize=auto;html=1;exitX=0;exitY=1;exitDx=0;exitDy=0;entryX=1;entryY=0.25;entryDx=0;entryDy=0;" edge="1" parent="1" source="_RBZDWvtwCyvlnyVkb1q-117" target="_RBZDWvtwCyvlnyVkb1q-114">
          <mxGeometry relative="1" as="geometry" />
        </mxCell>
        <mxCell id="_RBZDWvtwCyvlnyVkb1q-117" value="Elegir Película" style="whiteSpace=wrap;html=1;rounded=0;" vertex="1" parent="1">
          <mxGeometry x="326.5" y="1572.5" width="85" height="17.5" as="geometry" />
        </mxCell>
        <mxCell id="_RBZDWvtwCyvlnyVkb1q-128" value="" style="edgeStyle=orthogonalEdgeStyle;rounded=0;orthogonalLoop=1;jettySize=auto;html=1;" edge="1" parent="1" source="_RBZDWvtwCyvlnyVkb1q-124" target="_RBZDWvtwCyvlnyVkb1q-127">
          <mxGeometry relative="1" as="geometry" />
        </mxCell>
        <mxCell id="_RBZDWvtwCyvlnyVkb1q-124" value="Introducir Valoración" style="whiteSpace=wrap;html=1;rounded=0;" vertex="1" parent="1">
          <mxGeometry x="530" y="1320" width="120" height="25" as="geometry" />
        </mxCell>
        <mxCell id="_RBZDWvtwCyvlnyVkb1q-131" style="edgeStyle=orthogonalEdgeStyle;rounded=0;orthogonalLoop=1;jettySize=auto;html=1;exitX=0;exitY=0.5;exitDx=0;exitDy=0;entryX=0.5;entryY=0;entryDx=0;entryDy=0;" edge="1" parent="1" source="_RBZDWvtwCyvlnyVkb1q-127" target="_RBZDWvtwCyvlnyVkb1q-129">
          <mxGeometry relative="1" as="geometry" />
        </mxCell>
        <mxCell id="_RBZDWvtwCyvlnyVkb1q-133" style="edgeStyle=orthogonalEdgeStyle;rounded=0;orthogonalLoop=1;jettySize=auto;html=1;exitX=1;exitY=0.5;exitDx=0;exitDy=0;entryX=0.5;entryY=0;entryDx=0;entryDy=0;" edge="1" parent="1" source="_RBZDWvtwCyvlnyVkb1q-127" target="_RBZDWvtwCyvlnyVkb1q-132">
          <mxGeometry relative="1" as="geometry" />
        </mxCell>
        <mxCell id="_RBZDWvtwCyvlnyVkb1q-127" value="Valoración Válida" style="rhombus;whiteSpace=wrap;html=1;rounded=0;" vertex="1" parent="1">
          <mxGeometry x="540" y="1446.25" width="100" height="57.5" as="geometry" />
        </mxCell>
        <mxCell id="_RBZDWvtwCyvlnyVkb1q-129" value="Mostrar &quot;Valoración no válida&quot;" style="whiteSpace=wrap;html=1;rounded=0;" vertex="1" parent="1">
          <mxGeometry x="450" y="1572.5" width="120" height="37.5" as="geometry" />
        </mxCell>
        <mxCell id="_RBZDWvtwCyvlnyVkb1q-135" value="" style="edgeStyle=orthogonalEdgeStyle;rounded=0;orthogonalLoop=1;jettySize=auto;html=1;" edge="1" parent="1" source="_RBZDWvtwCyvlnyVkb1q-132" target="_RBZDWvtwCyvlnyVkb1q-134">
          <mxGeometry relative="1" as="geometry" />
        </mxCell>
        <mxCell id="_RBZDWvtwCyvlnyVkb1q-132" value="Mostrar Películas" style="whiteSpace=wrap;html=1;rounded=0;" vertex="1" parent="1">
          <mxGeometry x="610" y="1572.5" width="120" height="37.5" as="geometry" />
        </mxCell>
        <mxCell id="_RBZDWvtwCyvlnyVkb1q-136" style="edgeStyle=orthogonalEdgeStyle;rounded=0;orthogonalLoop=1;jettySize=auto;html=1;exitX=0;exitY=0.5;exitDx=0;exitDy=0;entryX=1;entryY=0.75;entryDx=0;entryDy=0;" edge="1" parent="1" source="_RBZDWvtwCyvlnyVkb1q-134" target="_RBZDWvtwCyvlnyVkb1q-114">
          <mxGeometry relative="1" as="geometry" />
        </mxCell>
        <mxCell id="_RBZDWvtwCyvlnyVkb1q-134" value="Elegir Película" style="whiteSpace=wrap;html=1;rounded=0;" vertex="1" parent="1">
          <mxGeometry x="615" y="1640" width="110" height="31.25" as="geometry" />
        </mxCell>
        <mxCell id="_RBZDWvtwCyvlnyVkb1q-141" value="" style="edgeStyle=orthogonalEdgeStyle;rounded=0;orthogonalLoop=1;jettySize=auto;html=1;" edge="1" parent="1" source="_RBZDWvtwCyvlnyVkb1q-137" target="_RBZDWvtwCyvlnyVkb1q-140">
          <mxGeometry relative="1" as="geometry" />
        </mxCell>
        <mxCell id="_RBZDWvtwCyvlnyVkb1q-137" value="Introducir Título" style="whiteSpace=wrap;html=1;rounded=0;" vertex="1" parent="1">
          <mxGeometry x="820" y="1345" width="110" height="20" as="geometry" />
        </mxCell>
        <mxCell id="_RBZDWvtwCyvlnyVkb1q-143" style="edgeStyle=orthogonalEdgeStyle;rounded=0;orthogonalLoop=1;jettySize=auto;html=1;exitX=0;exitY=0.5;exitDx=0;exitDy=0;entryX=0.5;entryY=0;entryDx=0;entryDy=0;" edge="1" parent="1" source="_RBZDWvtwCyvlnyVkb1q-140" target="_RBZDWvtwCyvlnyVkb1q-142">
          <mxGeometry relative="1" as="geometry" />
        </mxCell>
        <mxCell id="_RBZDWvtwCyvlnyVkb1q-145" value="" style="edgeStyle=orthogonalEdgeStyle;rounded=0;orthogonalLoop=1;jettySize=auto;html=1;" edge="1" parent="1" source="_RBZDWvtwCyvlnyVkb1q-140" target="_RBZDWvtwCyvlnyVkb1q-144">
          <mxGeometry relative="1" as="geometry" />
        </mxCell>
        <mxCell id="_RBZDWvtwCyvlnyVkb1q-140" value="Titulo Válido" style="rhombus;whiteSpace=wrap;html=1;rounded=0;" vertex="1" parent="1">
          <mxGeometry x="812.5" y="1446.25" width="125" height="55" as="geometry" />
        </mxCell>
        <mxCell id="_RBZDWvtwCyvlnyVkb1q-142" value="Mostrar &quot;Titulo no válido&quot;" style="rounded=0;whiteSpace=wrap;html=1;" vertex="1" parent="1">
          <mxGeometry x="740" y="1568.75" width="100" height="41.25" as="geometry" />
        </mxCell>
        <mxCell id="_RBZDWvtwCyvlnyVkb1q-147" value="" style="edgeStyle=orthogonalEdgeStyle;rounded=0;orthogonalLoop=1;jettySize=auto;html=1;" edge="1" parent="1" source="_RBZDWvtwCyvlnyVkb1q-144" target="_RBZDWvtwCyvlnyVkb1q-146">
          <mxGeometry relative="1" as="geometry" />
        </mxCell>
        <mxCell id="_RBZDWvtwCyvlnyVkb1q-144" value="Mostrar Películas" style="whiteSpace=wrap;html=1;rounded=0;" vertex="1" parent="1">
          <mxGeometry x="950" y="1570" width="100" height="40" as="geometry" />
        </mxCell>
        <mxCell id="_RBZDWvtwCyvlnyVkb1q-148" style="edgeStyle=orthogonalEdgeStyle;rounded=0;orthogonalLoop=1;jettySize=auto;html=1;exitX=0;exitY=0.5;exitDx=0;exitDy=0;" edge="1" parent="1" source="_RBZDWvtwCyvlnyVkb1q-146" target="_RBZDWvtwCyvlnyVkb1q-114">
          <mxGeometry relative="1" as="geometry" />
        </mxCell>
        <mxCell id="_RBZDWvtwCyvlnyVkb1q-146" value="Elegir Película" style="whiteSpace=wrap;html=1;rounded=0;" vertex="1" parent="1">
          <mxGeometry x="945" y="1675" width="110" height="30" as="geometry" />
        </mxCell>
      </root>
    </mxGraphModel>
  </diagram>
</mxfile>
